#Comment line ignore any data following # character 
#Hierarchical Translation and Rotation (.htr) file 
[Header]	
#Header keywords are followed by a single value 
FileType HTR		#Single word string
DataType HTRS		#Translation followed by rotation and scale data
FileVersion 1		#integer
NumSegments 23		#integer
NumFrames 6		#integer
DataFrameRate 30		#integer, data frame rate in this file
EulerRotationOrder ZYX
CalibrationUnits mm
RotationUnits Degrees
GlobalAxisofGravity Y
BoneLengthAxis Y
ScaleFactor 1.00
[SegmentNames&Hierarchy]
#CHILD	PARENT
MASTER GLOBAL
weapon MASTER
arm_lock_bottom_part1 weapon
arm_lock_bottom_part2 weapon
arm_lock_bottom_part3 weapon
arm_lock_bottom_part4 weapon
arm_lock_top_part1 weapon
arm_lock_top_part2 weapon
arm_lock_top_part3 weapon
front_lower_left_part1 weapon
front_lower_right_part1 weapon
front_top_left_part weapon
front_top_right_part1 weapon
scope_part1 weapon
scope_part2 weapon
front_lower_left_part2 front_lower_left_part1
front_lower_left_part3 front_lower_left_part2
front_lower_right_part2 front_lower_right_part1
front_lower_right_part3 front_lower_right_part2
front_top_left_part2 front_top_left_part
front_top_left_part3 front_top_left_part2
front_top_right_part2 front_top_right_part1
front_top_right_part3 front_top_right_part2
[BasePosition]
#SegmentName Tx, Ty, Tz, Rx, Ry, Rz, BoneLength
MASTER 0.000000 0.000000 0.000000 -90.000000 0.000000 0.000000 10.000000 
weapon 0.000000 0.000000 0.000000 0.000000 0.000000 0.000000 10.000000 
arm_lock_bottom_part1 0.000000 0.000000 0.000000 0.000000 0.000000 0.000000 10.000000 
arm_lock_bottom_part2 0.000000 0.000000 0.000000 0.000000 0.000000 0.000000 10.000000 
arm_lock_bottom_part3 0.000000 0.000000 0.000000 0.000000 0.000000 0.000000 10.000000 
arm_lock_bottom_part4 0.000000 0.000000 0.000000 0.000000 0.000000 0.000000 10.000000 
arm_lock_top_part1 0.000000 0.000000 0.000000 0.000000 0.000000 0.000000 10.000000 
arm_lock_top_part2 0.000000 0.000000 0.000000 0.000000 0.000000 0.000000 10.000000 
arm_lock_top_part3 0.000000 0.000000 0.000000 0.000000 0.000000 0.000000 10.000000 
front_lower_left_part1 0.000000 0.000000 0.000000 0.000000 0.000000 0.000000 10.000000 
front_lower_right_part1 0.000000 0.000000 0.000000 0.000000 0.000000 0.000000 10.000000 
front_top_left_part 0.000000 0.000000 0.000000 0.000000 0.000000 0.000000 10.000000 
front_top_right_part1 0.000000 0.000000 0.000000 0.000000 0.000000 0.000000 10.000000 
scope_part1 0.000000 0.000000 0.000000 0.000000 0.000000 0.000000 10.000000 
scope_part2 0.000000 0.000000 0.000000 0.000000 0.000000 0.000000 10.000000 
front_lower_left_part2 0.000000 0.000000 0.000000 0.000000 0.000000 0.000000 10.000000 
front_lower_left_part3 0.000000 0.000000 0.000000 0.000000 0.000000 0.000000 10.000000 
front_lower_right_part2 0.000000 0.000000 0.000000 0.000000 0.000000 0.000000 10.000000 
front_lower_right_part3 0.000000 0.000000 0.000000 0.000000 0.000000 0.000000 10.000000 
front_top_left_part2 0.000000 0.000000 0.000000 0.000000 0.000000 0.000000 10.000000 
front_top_left_part3 0.000000 0.000000 0.000000 0.000000 0.000000 0.000000 10.000000 
front_top_right_part2 0.000000 0.000000 0.000000 0.000000 0.000000 0.000000 10.000000 
front_top_right_part3 0.000000 0.000000 0.000000 0.000000 0.000000 0.000000 10.000000 
#Beginning of Data. Separated by tabs
#Fr	Tx	Ty	Tz	Rx	Ry	Rz	SF
[MASTER]
1 0.000000 -0.000019 0.000002 0.002458 -0.000000 0.000000 0.000019
2 0.000000 -0.000019 0.000002 0.002458 -0.000000 0.000000 0.000019
3 0.000000 -0.000019 0.000002 0.002458 -0.000000 0.000000 0.000019
4 0.000000 -0.000019 0.000002 0.002458 -0.000000 0.000000 0.000019
5 0.000000 -0.000019 0.000002 0.002458 -0.000000 0.000000 0.000019
6 0.000000 -0.000019 0.000002 0.002458 -0.000000 0.000000 0.000019
[weapon]
1 10.182457 -168.977844 -13.084106 -0.002473 -0.000000 -0.000020 169.789246
2 10.182457 -168.977844 -13.084106 -0.002473 -0.000000 -0.000020 169.789246
3 10.182457 -168.977844 -13.084106 -0.002473 -0.000000 -0.000020 169.789246
4 10.182457 -168.977844 -13.084106 -0.002473 -0.000000 -0.000020 169.789246
5 10.182457 -168.977844 -13.084106 -0.002473 -0.000000 -0.000020 169.789246
6 10.182457 -168.977844 -13.084106 -0.002473 -0.000000 -0.000020 169.789246
[arm_lock_bottom_part1]
1 -48.820000 98.566208 -83.498993 179.999985 0.000004 9.388626 138.096970
2 -48.820000 98.566208 -83.498993 179.999985 0.000004 9.388626 138.096970
3 -48.820000 98.566208 -83.498993 179.999985 0.000004 9.388626 138.096970
4 -48.820000 98.566208 -83.498993 179.999985 0.000004 9.388626 138.096970
5 -48.820000 98.566208 -83.498993 179.999985 0.000004 9.388626 138.096970
6 -48.820000 98.566208 -83.498993 179.999985 0.000004 9.388626 138.096970
[arm_lock_bottom_part2]
1 -49.022766 58.782005 -78.526535 -179.999985 -0.000001 6.576765 109.658440
2 -49.022766 58.782005 -78.526535 -179.999985 -0.000001 6.576765 109.658440
3 -49.022766 58.782005 -78.526535 -179.999985 -0.000001 6.576765 109.658440
4 -49.022766 58.782005 -78.526535 -179.999985 -0.000001 6.576765 109.658440
5 -49.022766 58.782005 -78.526535 -179.999985 -0.000001 6.576765 109.658440
6 -49.022766 58.782005 -78.526535 -179.999985 -0.000001 6.576765 109.658440
[arm_lock_bottom_part3]
1 -51.266422 -16.798210 -66.920395 -179.999985 -0.000001 4.326176 85.957924
2 -51.266422 -16.798210 -66.920395 -179.999985 -0.000001 4.326176 85.957924
3 -51.266422 -16.798210 -66.920395 -179.999985 -0.000001 4.326176 85.957924
4 -51.266422 -16.798210 -66.920395 -179.999985 -0.000001 4.326176 85.957924
5 -51.266422 -16.798210 -66.920395 -179.999985 -0.000001 4.326176 85.957924
6 -51.266422 -16.798210 -66.920395 -179.999985 -0.000001 4.326176 85.957924
[arm_lock_bottom_part4]
1 -40.078102 -93.503113 -59.330063 -179.999985 -0.000000 1.322129 117.767326
2 -40.078102 -93.503113 -59.330063 -179.999985 -0.000000 1.322129 117.767326
3 -40.078102 -93.503113 -59.330063 -179.999985 -0.000000 1.322129 117.767326
4 -40.078102 -93.503113 -59.330063 -179.999985 -0.000000 1.322129 117.767326
5 -40.078102 -93.503113 -59.330063 -179.999985 -0.000000 1.322129 117.767326
6 -40.078102 -93.503113 -59.330063 -179.999985 -0.000000 1.322129 117.767326
[arm_lock_top_part1]
1 -47.532558 61.554489 78.379364 0.000000 -0.000000 -9.999999 110.415680
2 -47.532558 61.554489 78.379364 0.000000 -0.000000 -9.999999 110.415680
3 -47.532558 61.554489 78.379364 0.000000 -0.000000 -9.999999 110.415680
4 -47.532558 61.554489 78.379364 0.000000 -0.000000 -9.999999 110.415680
5 -47.532558 61.554489 78.379364 0.000000 -0.000000 -9.999999 110.415680
6 -47.532558 61.554489 78.379364 0.000000 -0.000000 -9.999999 110.415680
[arm_lock_top_part2]
1 -45.622673 13.709908 63.393555 0.000000 -0.000000 -7.722126 79.297745
2 -45.622673 13.709908 63.393555 0.000000 -0.000000 -7.722126 79.297745
3 -45.622673 13.709908 63.393555 0.000000 -0.000000 -7.722126 79.297745
4 -45.622673 13.709908 63.393555 0.000000 -0.000000 -7.722126 79.297745
5 -45.622673 13.709908 63.393555 0.000000 -0.000000 -7.722126 79.297745
6 -45.622673 13.709908 63.393555 0.000000 -0.000000 -7.722126 79.297745
[arm_lock_top_part3]
1 -43.788544 -73.747208 72.061615 0.000000 0.000000 -4.533067 112.022163
2 -43.788544 -73.747208 72.061615 0.000000 0.000000 -4.533067 112.022163
3 -43.788544 -73.747208 72.061615 0.000000 0.000000 -4.533067 112.022163
4 -43.788544 -73.747208 72.061615 0.000000 0.000000 -4.533067 112.022163
5 -43.788544 -73.747208 72.061615 0.000000 0.000000 -4.533067 112.022163
6 -43.788544 -73.747208 72.061615 0.000000 0.000000 -4.533067 112.022163
[front_lower_left_part1]
1 -46.798553 475.070984 -43.538895 0.000000 0.000000 -0.000020 479.351837
2 -46.798534 475.070984 -43.538895 0.000000 -0.000000 1.990991 479.351837
3 -46.798534 475.070984 -43.538895 0.000000 -0.000000 5.688352 479.351837
4 -46.798534 475.070984 -43.538895 0.000000 -0.000000 7.679271 479.351837
5 -46.798534 475.070984 -43.538895 0.000000 -0.000000 7.464294 479.351837
6 -46.798534 475.070984 -43.538895 0.000000 -0.000000 6.880651 479.351837
[front_lower_right_part1]
1 26.433468 475.070984 -43.538742 0.000000 0.000000 -0.000020 477.793671
2 26.433468 475.070984 -43.538742 0.000000 0.000000 -1.729189 477.793671
3 26.433468 475.070984 -43.538742 0.000000 0.000000 -4.940651 477.793671
4 26.433468 475.070984 -43.538742 0.000000 0.000000 -6.669982 477.793671
5 26.433468 475.070984 -43.538742 0.000000 0.000000 -6.483285 477.793671
6 26.433468 475.070984 -43.538742 0.000000 0.000000 -5.976234 477.793671
[front_top_left_part]
1 -47.897224 494.788910 7.030945 -0.000000 0.000003 -0.000001 497.151520
2 -47.897224 494.788910 7.030945 -0.000000 0.000003 -0.000001 497.151520
3 -47.897224 494.788910 7.030945 -0.000000 0.000003 -0.000001 497.151520
4 -47.897224 494.788910 7.030945 -0.000000 0.000003 -0.000001 497.151520
5 -47.897224 494.788910 7.030945 -0.000000 0.000003 -0.000001 497.151520
6 -47.897224 494.788910 7.030945 -0.000000 0.000003 -0.000001 497.151520
[front_top_right_part1]
1 27.532139 494.788910 7.031097 0.000000 -0.000000 -0.000000 495.604218
2 27.532139 494.788910 7.031097 0.000000 -0.000000 -0.000000 495.604218
3 27.532139 494.788910 7.031097 0.000000 -0.000000 -0.000000 495.604218
4 27.532139 494.788910 7.031097 0.000000 -0.000000 -0.000000 495.604218
5 27.532139 494.788910 7.031097 0.000000 -0.000000 -0.000000 495.604218
6 27.532139 494.788910 7.031097 0.000000 -0.000000 -0.000000 495.604218
[scope_part1]
1 -10.754299 87.338936 156.453094 -4.904470 -0.000000 0.000037 179.502960
2 -10.754299 87.338936 156.453094 -4.904470 -0.000000 0.000037 179.502960
3 -10.754299 87.338936 156.453094 -4.904470 -0.000000 0.000037 179.502960
4 -10.754299 87.338936 156.453094 -4.904470 -0.000000 0.000037 179.502960
5 -10.754299 87.338936 156.453094 -4.904470 -0.000000 0.000037 179.502960
6 -10.754299 87.338936 156.453094 -4.904470 -0.000000 0.000037 179.502960
[scope_part2]
1 -10.754299 82.597351 156.859894 -4.904458 0.000003 0.000037 177.603500
2 -10.754299 82.597351 156.859894 -4.904458 0.000003 0.000037 177.603500
3 -10.754299 82.597351 156.859894 -4.904458 0.000003 0.000037 177.603500
4 -10.754299 82.597351 156.859894 -4.904458 0.000003 0.000037 177.603500
5 -10.754299 82.597351 156.859894 -4.904458 0.000003 0.000037 177.603500
6 -10.754299 82.597351 156.859894 -4.904458 0.000003 0.000037 177.603500
[front_lower_left_part2]
1 -55.193516 141.618484 32.268444 0.000009 -0.000003 0.000003 155.381378
2 -55.193535 141.618408 32.268444 0.000009 -0.000003 0.000003 155.381317
3 -55.193558 141.618484 32.268219 0.000009 -0.000003 0.000003 155.381348
4 -55.193516 141.618576 32.268219 0.000009 -0.000003 0.000003 155.381409
5 -55.193535 141.618408 32.268372 0.000009 -0.000003 0.000003 155.381317
6 -55.193535 141.618576 32.268372 0.000009 -0.000003 0.000003 155.381454
[front_lower_left_part3]
1 -10.943755 108.509369 -11.124725 33.350468 -16.024452 -13.463913 109.625763
2 -10.943775 108.509521 -11.125030 34.228981 -13.818582 -16.874077 109.625946
3 -10.943755 108.509521 -11.124877 35.483444 -9.605939 -23.043791 109.625931
4 -10.943737 108.509445 -11.124877 35.961731 -7.290259 -26.297964 109.625854
5 -10.943755 108.509521 -11.124725 35.916649 -7.541606 -25.948269 109.625916
6 -10.943775 108.509369 -11.125030 35.786198 -8.222373 -24.997189 109.625801
[front_lower_right_part2]
1 55.193707 141.618347 32.268291 0.000009 0.000001 -0.000004 155.381271
2 55.193729 141.618271 32.268444 0.000009 0.000001 -0.000004 155.381256
3 55.193729 141.618347 32.268291 0.000009 0.000001 -0.000004 155.381287
4 55.193668 141.618484 32.268139 0.000009 0.000001 -0.000004 155.381378
5 55.193729 141.618271 32.268291 0.000009 0.000001 -0.000004 155.381226
6 55.193707 141.618271 32.268139 0.000009 0.000001 -0.000004 155.381180
[front_lower_right_part3]
1 10.943870 108.509369 -11.124877 33.350536 16.024376 13.463858 109.625786
2 10.943909 108.509445 -11.124725 33.793320 14.964381 15.121140 109.625854
3 10.943890 108.509445 -11.124877 34.526009 12.965092 18.156309 109.625870
4 10.943909 108.509369 -11.124725 34.873100 11.873801 19.769999 109.625778
5 10.943890 108.509369 -11.125030 34.837215 11.992146 19.596304 109.625809
6 10.943909 108.509445 -11.124573 34.737801 12.312707 19.124269 109.625839
[front_top_left_part2]
1 -42.569122 137.487869 54.839325 0.000000 -0.000003 0.000001 154.020767
2 -41.788235 137.489548 54.796448 0.000000 -0.000003 0.000001 153.792984
3 -40.070343 137.493210 54.701996 0.000000 -0.000003 0.000001 153.304672
4 -38.352428 137.496872 54.607544 0.000000 -0.000003 0.000001 152.834167
5 -37.571583 137.498535 54.564667 0.000000 -0.000003 0.000001 152.626266
6 -38.091316 137.497482 54.593197 0.000000 -0.000003 0.000001 152.764267
[front_top_left_part3]
1 -28.216457 149.656982 49.959717 -25.847345 -3.900758 -66.530426 160.278992
2 -28.216476 149.656982 49.959717 -25.867979 -3.751280 -66.221283 160.278992
3 -28.216457 149.656982 49.959717 -25.915958 -3.377243 -65.449211 160.278992
4 -28.216457 149.656982 49.959717 -25.970835 -2.890000 -64.446289 160.278992
5 -28.216438 149.656982 49.959717 -26.017057 -2.401950 -63.444328 160.278976
6 -28.216457 149.656906 49.959717 -26.046865 -2.025993 -62.673965 160.278915
[front_top_right_part2]
1 42.569122 137.488022 54.839325 0.000000 0.000000 -0.000020 154.020889
2 39.757233 137.481995 54.993740 0.000000 0.000000 -0.000020 153.317459
3 33.571163 137.468796 55.333858 0.000000 0.000000 -0.000020 151.942520
4 27.385101 137.455521 55.673828 0.000000 0.000000 -0.000020 150.809616
5 24.573286 137.449493 55.828400 0.000000 0.000000 -0.000020 150.376266
6 26.444855 137.453537 55.725555 0.000000 0.000000 -0.000020 150.659027
[front_top_right_part3]
1 28.216476 149.657135 49.959564 -25.847412 3.900794 66.530373 160.279083
2 28.216553 149.657135 49.959717 -25.878885 3.669833 66.053139 160.279144
3 28.216515 149.657059 49.959564 -25.949232 3.091604 64.860786 160.279022
4 28.216515 149.657135 49.959564 -26.022535 2.337822 63.312767 160.279083
5 28.216476 149.657135 49.959564 -26.075413 1.582337 61.766411 160.279083
6 28.216553 149.657135 49.959564 -26.102259 1.000414 60.577671 160.279099
